<svg width="17" height="16" viewBox="0 0 17 16" fill="none" xmlns="http://www.w3.org/2000/svg">
<g clip-path="url(#clip0_1_34)">
<path d="M9.067 0.429989L11.057 4.46099C11.169 4.68899 11.387 4.84699 11.637 4.88299L16.087 5.52999C16.2293 5.55095 16.363 5.61125 16.4728 5.7041C16.5827 5.79695 16.6645 5.91866 16.7089 6.05549C16.7533 6.19232 16.7585 6.33884 16.7241 6.47851C16.6897 6.61819 16.6169 6.74547 16.514 6.84599L13.294 9.98399C13.2045 10.0714 13.1375 10.1792 13.0989 10.2981C13.0602 10.4171 13.051 10.5437 13.072 10.667L13.832 15.098C13.8562 15.2399 13.8401 15.3857 13.7858 15.519C13.7315 15.6523 13.6409 15.7677 13.5244 15.8523C13.408 15.9368 13.2702 15.9871 13.1266 15.9975C12.983 16.0079 12.8394 15.9779 12.712 15.911L8.732 13.819C8.62125 13.7609 8.49806 13.7306 8.373 13.7306C8.24794 13.7306 8.12475 13.7609 8.014 13.819L4.034 15.911C3.9066 15.9776 3.76312 16.0074 3.61972 15.9969C3.47632 15.9864 3.33871 15.936 3.22239 15.8515C3.10607 15.767 3.01566 15.6517 2.96135 15.5185C2.90704 15.3854 2.89099 15.2397 2.915 15.098L3.675 10.667C3.69628 10.5437 3.68719 10.417 3.64851 10.298C3.60982 10.179 3.54272 10.0712 3.453 9.98399L0.233002 6.84599C0.13008 6.7454 0.0573232 6.61804 0.0229451 6.4783C-0.011433 6.33855 -0.006064 6.19197 0.0384461 6.05512C0.0829561 5.91826 0.164835 5.79657 0.274841 5.70378C0.384847 5.61099 0.518599 5.55079 0.661002 5.52999L5.11 4.88299C5.23361 4.86483 5.35096 4.81694 5.45199 4.74344C5.55301 4.66994 5.63469 4.57301 5.69 4.46099L7.68 0.429989C7.74404 0.300783 7.8429 0.192036 7.96543 0.116008C8.08796 0.0399798 8.2293 -0.000305176 8.3735 -0.000305176C8.51771 -0.000305176 8.65904 0.0399798 8.78158 0.116008C8.90411 0.192036 9.00297 0.300783 9.067 0.429989Z" fill="#FC7614"/>
</g>
<defs>
<clipPath id="clip0_1_34">
<rect width="17" height="16" fill="white"/>
</clipPath>
</defs>
</svg>
